<svg width="15" height="15" viewBox="0 0 15 15" fill="none" xmlns="http://www.w3.org/2000/svg">
<path d="M7.30302 4.24668C5.31552 4.24668 3.71239 5.8498 3.71239 7.8373C3.71239 9.8248 5.31552 11.4279 7.30302 11.4279C9.29052 11.4279 10.8937 9.8248 10.8937 7.8373C10.8937 5.8498 9.29052 4.24668 7.30302 4.24668ZM7.30302 10.1716C6.01864 10.1716 4.96864 9.1248 4.96864 7.8373C4.96864 6.5498 6.01552 5.50293 7.30302 5.50293C8.59052 5.50293 9.63739 6.5498 9.63739 7.8373C9.63739 9.1248 8.58739 10.1716 7.30302 10.1716ZM11.878 4.0998C11.878 4.56543 11.503 4.9373 11.0405 4.9373C10.5749 4.9373 10.203 4.5623 10.203 4.0998C10.203 3.6373 10.578 3.2623 11.0405 3.2623C11.503 3.2623 11.878 3.6373 11.878 4.0998ZM14.2562 4.9498C14.203 3.82793 13.9468 2.83418 13.1249 2.01543C12.3062 1.19668 11.3124 0.940431 10.1905 0.884181C9.03427 0.818554 5.56864 0.818554 4.41239 0.884181C3.29364 0.937301 2.29989 1.19355 1.47802 2.0123C0.65614 2.83105 0.403015 3.8248 0.346765 4.94668C0.28114 6.10293 0.28114 9.56855 0.346765 10.7248C0.39989 11.8466 0.65614 12.8404 1.47802 13.6591C2.29989 14.4779 3.29052 14.7341 4.41239 14.7904C5.56864 14.856 9.03427 14.856 10.1905 14.7904C11.3124 14.7373 12.3062 14.481 13.1249 13.6591C13.9437 12.8404 14.1999 11.8466 14.2562 10.7248C14.3218 9.56855 14.3218 6.10605 14.2562 4.9498ZM12.7624 11.9654C12.5187 12.5779 12.0468 13.0498 11.4312 13.2966C10.5093 13.6623 8.32177 13.5779 7.30302 13.5779C6.28427 13.5779 4.09364 13.6591 3.17489 13.2966C2.56239 13.0529 2.09052 12.581 1.84364 11.9654C1.47802 11.0435 1.56239 8.85605 1.56239 7.8373C1.56239 6.81855 1.48114 4.62793 1.84364 3.70918C2.08739 3.09668 2.55927 2.6248 3.17489 2.37793C4.09677 2.0123 6.28427 2.09668 7.30302 2.09668C8.32177 2.09668 10.5124 2.01543 11.4312 2.37793C12.0437 2.62168 12.5155 3.09355 12.7624 3.70918C13.128 4.63105 13.0437 6.81855 13.0437 7.8373C13.0437 8.85605 13.128 11.0466 12.7624 11.9654Z" fill="#212121"/>
</svg>
