<svg width="12" height="13" viewBox="0 0 12 13" fill="none" xmlns="http://www.w3.org/2000/svg">
<path d="M11.8024 5.08423C11.7272 4.86373 11.5283 4.70798 11.2961 4.6899L7.97053 4.42565L6.53144 1.24007C6.43753 1.03065 6.22928 0.896484 6.00003 0.896484C5.77078 0.896484 5.56253 1.03065 5.46861 1.23948L4.02953 4.42565L0.703945 4.6899C0.475862 4.70798 0.279278 4.8579 0.201695 5.07315C0.124112 5.2884 0.178945 5.52932 0.342862 5.68915L2.80044 8.0849L1.93128 11.8486C1.87761 12.0813 1.97153 12.3234 2.16811 12.4593C2.26844 12.5282 2.38394 12.5632 2.50003 12.5632C2.61261 12.5632 2.72578 12.5305 2.82378 12.4652L6.00003 10.3477L9.17628 12.4652C9.37928 12.6005 9.64586 12.5953 9.84419 12.4512C10.0414 12.3071 10.1283 12.0545 10.0612 11.82L8.99428 8.08665L11.6403 5.70548C11.8135 5.54915 11.8771 5.30532 11.8024 5.08423Z" fill="black"/>
</svg>
